<svg width="25" height="25" viewBox="0 0 25 25" fill="none" xmlns="http://www.w3.org/2000/svg">
<path d="M11.6455 3.71108C9.83976 3.31111 7.95366 3.49469 6.25895 4.23538C4.56424 4.97607 3.1484 6.23562 2.21542 7.83256C2.17191 7.90707 2.15429 7.99389 2.16531 8.07946C2.17634 8.16504 2.21538 8.24456 2.27636 8.30561L4.81542 10.8447C6.61505 8.05196 8.93363 5.63035 11.6455 3.71108Z" fill="#BE0004"/>
<path d="M21.2898 13.3555C21.6898 15.1612 21.5062 17.0473 20.7655 18.742C20.0249 20.4367 18.7653 21.8526 17.1684 22.7855C17.0939 22.8291 17.007 22.8467 16.9215 22.8357C16.8359 22.8246 16.7564 22.7856 16.6953 22.7246L14.1562 20.1855C16.949 18.3859 19.3706 16.0673 21.2898 13.3555Z" fill="#BE0004"/>
<path d="M6.23081 18.7695C5.71755 18.2575 5.02218 17.97 4.29721 17.97C3.57225 17.97 2.87688 18.2575 2.36362 18.7695C1.10464 20.0281 0.795261 23.6429 0.781589 23.7961C0.777152 23.85 0.783966 23.9042 0.8016 23.9554C0.819235 24.0066 0.847304 24.0535 0.884029 24.0932C0.920753 24.133 0.965333 24.1646 1.01494 24.1862C1.06455 24.2078 1.11811 24.2189 1.17221 24.2187C1.18276 24.2187 1.1937 24.2187 1.20425 24.2187C1.35737 24.2062 4.97221 23.8968 6.23081 22.6379C6.74316 22.1245 7.03092 21.4289 7.03092 20.7037C7.03092 19.9784 6.74316 19.2828 6.23081 18.7695Z" fill="#0BA8FC"/>
<path d="M22.2729 9.21872C23.4164 6.68864 24.0766 3.96696 24.2193 1.19411C24.2225 1.13935 24.214 1.08454 24.1946 1.03326C24.1751 0.981973 24.1451 0.935359 24.1064 0.896451C24.0675 0.857518 24.0209 0.827154 23.9696 0.807308C23.9183 0.787463 23.8634 0.778575 23.8084 0.781217C21.0276 0.910565 18.2961 1.56283 15.7568 2.70387L22.2729 9.21872Z" fill="#0BA8FC"/>
<path d="M15.0112 3.06348C7.30413 6.9209 4.25569 14.2557 4.21662 14.3525C4.18809 14.4236 4.18106 14.5014 4.19641 14.5764C4.21176 14.6515 4.24881 14.7203 4.30295 14.7744L10.2256 20.6975C10.28 20.7519 10.3493 20.7891 10.4248 20.8043C10.5003 20.8196 10.5786 20.8121 10.6498 20.783C10.7463 20.7439 18.0455 17.66 21.9119 9.96269L15.0112 3.06348ZM13.6721 13.6721C13.2085 13.6721 12.7554 13.5346 12.37 13.2771C11.9845 13.0195 11.6841 12.6535 11.5068 12.2252C11.3294 11.797 11.2829 11.3257 11.3734 10.8711C11.4638 10.4164 11.687 9.99882 12.0148 9.67104C12.3426 9.34326 12.7602 9.12004 13.2148 9.0296C13.6695 8.93917 14.1407 8.98558 14.569 9.16298C14.9973 9.34037 15.3633 9.64077 15.6208 10.0262C15.8784 10.4116 16.0158 10.8648 16.0158 11.3283C16.0158 11.9499 15.7689 12.5461 15.3294 12.9856C14.8898 13.4251 14.2937 13.6721 13.6721 13.6721Z" fill="#0BA8FC"/>
</svg>
