<svg width="25" height="25" viewBox="0 0 25 25" fill="none" xmlns="http://www.w3.org/2000/svg">
<path d="M24.5969 0H13.3065C13.0836 0 12.9033 0.199554 12.9033 0.446429V12.0536C12.9033 12.2254 12.9924 12.3812 13.1315 12.4558C13.1876 12.4857 13.2473 12.5 13.3065 12.5C13.3965 12.5 13.4856 12.467 13.5586 12.4022L17.4803 8.92857H24.5969C24.8199 8.92857 25.0001 8.72902 25.0001 8.48214V0.446429C25.0001 0.199554 24.8199 0 24.5969 0Z" fill="#BE0004"/>
<path d="M6.85462 15.1785C8.85888 15.1785 10.4837 13.3797 10.4837 11.1607C10.4837 8.94168 8.85888 7.14282 6.85462 7.14282C4.85036 7.14282 3.22559 8.94168 3.22559 11.1607C3.22559 13.3797 4.85036 15.1785 6.85462 15.1785Z" fill="#0BA8FC"/>
<path d="M11.9315 17.926C10.9048 17.4871 9.19073 16.9644 6.85484 16.9644C4.51895 16.9644 2.80484 17.4871 1.77823 17.926C0.714516 18.3804 0 19.5478 0 20.8313V24.5536C0 24.8005 0.180242 25.0001 0.403226 25.0001H13.3065C13.5294 25.0001 13.7097 24.8005 13.7097 24.5536V20.8313C13.7097 19.5478 12.9952 18.3804 11.9315 17.926Z" fill="#0BA8FC"/>
</svg>
